<svg xmlns="http://www.w3.org/2000/svg" width="160" height="160" viewBox="0 0 160 160" fill="none">
  <defs>
    <linearGradient id="salesesy-grad" x1="18" y1="142" x2="142" y2="22" gradientUnits="userSpaceOnUse">
      <stop stop-color="#003C33"/>
      <stop offset="1" stop-color="#0E5B4D"/>
    </linearGradient>
  </defs>
  <g fill="url(#salesesy-grad)">
    <path d="M86 18c-22.5 0-40.5 16.7-40.5 38.5 0 14.4 8.6 24.9 22.5 31.6l10.9 5.3c6.5 3 9.9 6.4 9.9 11.2 0 6.4-5.4 10.6-13.3 10.6-6.6 0-13.1-3.1-18.7-9l-12.8 12.1c7.8 8.8 18.7 14 31.6 14 22.6 0 39.6-15.6 39.6-37.2 0-13.9-7.3-24-20.5-30.5l-12.2-6c-5.7-2.8-8.6-6.1-8.6-10.2 0-6 4.6-10.2 11.8-10.2 5.6 0 10.8 2.4 15.1 6.9l10.4-13c-8-7.6-18.8-12.1-30.8-12.1Z"/>
    <path d="M114.8 34.5 140 58l-12.5 2.6-.4 17.3-19.6-18.8 7-8.6-18.1-2.8 25.4-13.2Z"/>
    <rect x="102" y="83" width="14" height="38" rx="3"/>
    <rect x="122" y="69" width="14" height="52" rx="3"/>
    <circle cx="54" cy="112" r="6.5"/>
  </g>
</svg>
